<?xml version="1.0" encoding="UTF-8" standalone="no"?>
<svg
   xmlns:dc="http://purl.org/dc/elements/1.1/"
   xmlns:cc="http://creativecommons.org/ns#"
   xmlns:rdf="http://www.w3.org/1999/02/22-rdf-syntax-ns#"
   xmlns:svg="http://www.w3.org/2000/svg"
   xmlns="http://www.w3.org/2000/svg"
   xmlns:sodipodi="http://sodipodi.sourceforge.net/DTD/sodipodi-0.dtd"
   xmlns:inkscape="http://www.inkscape.org/namespaces/inkscape"
   enable-background="new 0 0 48 48"
   id="Layer_1"
   version="1.1"
   viewBox="0 0 48 48"
   xml:space="preserve"
   sodipodi:docname="twitter.svg"
   inkscape:version="1.0.1 (3bc2e813f5, 2020-09-07)"><metadata
     id="metadata15"><rdf:RDF><cc:Work
         rdf:about=""><dc:format>image/svg+xml</dc:format><dc:type
           rdf:resource="http://purl.org/dc/dcmitype/StillImage" /></cc:Work></rdf:RDF></metadata><defs
     id="defs13" /><sodipodi:namedview
     pagecolor="#ffffff"
     bordercolor="#666666"
     borderopacity="1"
     objecttolerance="10"
     gridtolerance="10"
     guidetolerance="10"
     inkscape:pageopacity="0"
     inkscape:pageshadow="2"
     inkscape:window-width="1920"
     inkscape:window-height="1017"
     id="namedview11"
     showgrid="false"
     inkscape:zoom="17.708333"
     inkscape:cx="24"
     inkscape:cy="24"
     inkscape:window-x="-8"
     inkscape:window-y="-8"
     inkscape:window-maximized="1"
     inkscape:current-layer="Layer_1" /><g
     id="g8"><g
       id="g6"><path
         d="M36.8,15.4c-0.9,0.5-2,0.8-3,0.9c1.1-0.7,1.9-1.8,2.3-3.1c-1,0.6-2.1,1.1-3.4,1.4c-1-1.1-2.3-1.8-3.8-1.8    c-2.9,0-5.3,2.5-5.3,5.7c0,0.4,0,0.9,0.1,1.3c-4.4-0.2-8.3-2.5-10.9-5.9c-0.5,0.8-0.7,1.8-0.7,2.9c0,2,0.9,3.7,2.3,4.7    c-0.9,0-1.7-0.3-2.4-0.7c0,0,0,0.1,0,0.1c0,2.7,1.8,5,4.2,5.6c-0.4,0.1-0.9,0.2-1.4,0.2c-0.3,0-0.7,0-1-0.1    c0.7,2.3,2.6,3.9,4.9,3.9c-1.8,1.5-4.1,2.4-6.5,2.4c-0.4,0-0.8,0-1.3-0.1c2.3,1.6,5.1,2.6,8.1,2.6c9.7,0,15-8.6,15-16.1    c0-0.2,0-0.5,0-0.7C35.2,17.6,36.1,16.6,36.8,15.4z"
         fill="#FFFFFF"
         id="path4" /></g></g></svg>
